<svg width="4339" height="2412" xmlns="http://www.w3.org/2000/svg" xmlns:xlink="http://www.w3.org/1999/xlink" xml:space="preserve" overflow="hidden"><defs><linearGradient x1="590.5" y1="344" x2="590.5" y2="479" gradientUnits="userSpaceOnUse" spreadMethod="reflect" id="fill0"><stop offset="0" stop-color="#6083CB"/><stop offset="0.5" stop-color="#3E70CA"/><stop offset="1" stop-color="#2E61BA"/></linearGradient><linearGradient x1="1763.5" y1="344" x2="1763.5" y2="479" gradientUnits="userSpaceOnUse" spreadMethod="reflect" id="fill1"><stop offset="0" stop-color="#6083CB"/><stop offset="0.5" stop-color="#3E70CA"/><stop offset="1" stop-color="#2E61BA"/></linearGradient><linearGradient x1="2078" y1="344" x2="2078" y2="479" gradientUnits="userSpaceOnUse" spreadMethod="reflect" id="fill2"><stop offset="0" stop-color="#6083CB"/><stop offset="0.5" stop-color="#3E70CA"/><stop offset="1" stop-color="#2E61BA"/></linearGradient><linearGradient x1="2443" y1="344" x2="2443" y2="479" gradientUnits="userSpaceOnUse" spreadMethod="reflect" id="fill3"><stop offset="0" stop-color="#6083CB"/><stop offset="0.5" stop-color="#3E70CA"/><stop offset="1" stop-color="#2E61BA"/></linearGradient><linearGradient x1="2827" y1="344" x2="2827" y2="479" gradientUnits="userSpaceOnUse" spreadMethod="reflect" id="fill4"><stop offset="0" stop-color="#6083CB"/><stop offset="0.5" stop-color="#3E70CA"/><stop offset="1" stop-color="#2E61BA"/></linearGradient><linearGradient x1="3243.5" y1="344" x2="3243.5" y2="479" gradientUnits="userSpaceOnUse" spreadMethod="reflect" id="fill5"><stop offset="0" stop-color="#6083CB"/><stop offset="0.5" stop-color="#3E70CA"/><stop offset="1" stop-color="#2E61BA"/></linearGradient><linearGradient x1="401.5" y1="2302" x2="401.5" y2="2438" gradientUnits="userSpaceOnUse" spreadMethod="reflect" id="fill6"><stop offset="0" stop-color="#6083CB"/><stop offset="0.5" stop-color="#3E70CA"/><stop offset="1" stop-color="#2E61BA"/></linearGradient><linearGradient x1="671" y1="2302" x2="671" y2="2438" gradientUnits="userSpaceOnUse" spreadMethod="reflect" id="fill7"><stop offset="0" stop-color="#6083CB"/><stop offset="0.5" stop-color="#3E70CA"/><stop offset="1" stop-color="#2E61BA"/></linearGradient><linearGradient x1="1012.5" y1="2302" x2="1012.5" y2="2438" gradientUnits="userSpaceOnUse" spreadMethod="reflect" id="fill8"><stop offset="0" stop-color="#6083CB"/><stop offset="0.5" stop-color="#3E70CA"/><stop offset="1" stop-color="#2E61BA"/></linearGradient><linearGradient x1="2439.5" y1="624" x2="2439.5" y2="760" gradientUnits="userSpaceOnUse" spreadMethod="reflect" id="fill9"><stop offset="0" stop-color="#6083CB"/><stop offset="0.5" stop-color="#3E70CA"/><stop offset="1" stop-color="#2E61BA"/></linearGradient><linearGradient x1="3299.5" y1="906" x2="3299.5" y2="1041" gradientUnits="userSpaceOnUse" spreadMethod="reflect" id="fill10"><stop offset="0" stop-color="#6083CB"/><stop offset="0.5" stop-color="#3E70CA"/><stop offset="1" stop-color="#2E61BA"/></linearGradient><linearGradient x1="3624.5" y1="1196" x2="3624.5" y2="1331" gradientUnits="userSpaceOnUse" spreadMethod="reflect" id="fill11"><stop offset="0" stop-color="#6083CB"/><stop offset="0.5" stop-color="#3E70CA"/><stop offset="1" stop-color="#2E61BA"/></linearGradient><linearGradient x1="3625" y1="1424" x2="3625" y2="1559" gradientUnits="userSpaceOnUse" spreadMethod="reflect" id="fill12"><stop offset="0" stop-color="#6083CB"/><stop offset="0.5" stop-color="#3E70CA"/><stop offset="1" stop-color="#2E61BA"/></linearGradient><linearGradient x1="3625" y1="1696" x2="3625" y2="1831" gradientUnits="userSpaceOnUse" spreadMethod="reflect" id="fill13"><stop offset="0" stop-color="#6083CB"/><stop offset="0.5" stop-color="#3E70CA"/><stop offset="1" stop-color="#2E61BA"/></linearGradient><linearGradient x1="3625" y1="1941" x2="3625" y2="2076" gradientUnits="userSpaceOnUse" spreadMethod="reflect" id="fill14"><stop offset="0" stop-color="#6083CB"/><stop offset="0.5" stop-color="#3E70CA"/><stop offset="1" stop-color="#2E61BA"/></linearGradient><linearGradient x1="1895" y1="906" x2="1895" y2="1041" gradientUnits="userSpaceOnUse" spreadMethod="reflect" id="fill15"><stop offset="0" stop-color="#6083CB"/><stop offset="0.5" stop-color="#3E70CA"/><stop offset="1" stop-color="#2E61BA"/></linearGradient><linearGradient x1="1895.5" y1="1196" x2="1895.5" y2="1331" gradientUnits="userSpaceOnUse" spreadMethod="reflect" id="fill16"><stop offset="0" stop-color="#6083CB"/><stop offset="0.5" stop-color="#3E70CA"/><stop offset="1" stop-color="#2E61BA"/></linearGradient><linearGradient x1="1895.5" y1="1424" x2="1895.5" y2="1559" gradientUnits="userSpaceOnUse" spreadMethod="reflect" id="fill17"><stop offset="0" stop-color="#6083CB"/><stop offset="0.5" stop-color="#3E70CA"/><stop offset="1" stop-color="#2E61BA"/></linearGradient><linearGradient x1="1895.5" y1="1696" x2="1895.5" y2="1831" gradientUnits="userSpaceOnUse" spreadMethod="reflect" id="fill18"><stop offset="0" stop-color="#6083CB"/><stop offset="0.5" stop-color="#3E70CA"/><stop offset="1" stop-color="#2E61BA"/></linearGradient></defs><g transform="translate(-30 -46)"><path d="M1341.5 71.0007C1341.5 58.5739 1351.57 48.5 1364 48.5L1902 48.5C1914.43 48.5 1924.5 58.5739 1924.5 71.0007L1924.5 160.999C1924.5 173.426 1914.43 183.5 1902 183.5L1364 183.5C1351.57 183.5 1341.5 173.426 1341.5 160.999Z" stroke="#000000" stroke-width="4.58333" stroke-miterlimit="8" fill="#FFFFFF" fill-rule="evenodd"/><text font-family="Arial,Arial_MSFontService,sans-serif" font-weight="400" font-size="73" transform="matrix(1 0 0 1 1380.36 143)">anySimpleType</text><path d="M461 366.501C461 354.074 471.074 344 483.5 344L697.5 344C709.926 344 720 354.074 720 366.501L720 456.499C720 468.926 709.926 479 697.5 479L483.5 479C471.074 479 461 468.926 461 456.499Z" stroke="#4472C4" stroke-width="2.29167" stroke-miterlimit="8" fill="url(#fill0)" fill-rule="evenodd"/><text fill="#FFFFFF" font-family="Arial,Arial_MSFontService,sans-serif" font-weight="400" font-size="73" transform="matrix(1 0 0 1 500.972 438)">string</text><path d="M1654 366.501C1654 354.074 1664.07 344 1676.5 344L1850.5 344C1862.93 344 1873 354.074 1873 366.501L1873 456.499C1873 468.926 1862.93 479 1850.5 479L1676.5 479C1664.07 479 1654 468.926 1654 456.499Z" stroke="#4472C4" stroke-width="2.29167" stroke-miterlimit="8" fill="url(#fill1)" fill-rule="evenodd"/><text fill="#FFFFFF" font-family="Arial,Arial_MSFontService,sans-serif" font-weight="400" font-size="73" transform="matrix(1 0 0 1 1694.02 438)">float</text><path d="M1928 366.5C1928 354.074 1938.07 344 1950.5 344L2205.5 344C2217.93 344 2228 354.074 2228 366.5L2228 456.5C2228 468.926 2217.93 479 2205.5 479L1950.5 479C1938.07 479 1928 468.926 1928 456.5Z" stroke="#4472C4" stroke-width="2.29167" stroke-miterlimit="8" fill="url(#fill2)" fill-rule="evenodd"/><text fill="#FFFFFF" font-family="Arial,Arial_MSFontService,sans-serif" font-weight="400" font-size="73" transform="matrix(1 0 0 1 1968.13 438)">double</text><path d="M2276 366.501C2276 354.074 2286.07 344 2298.5 344L2587.5 344C2599.93 344 2610 354.074 2610 366.501L2610 456.499C2610 468.926 2599.93 479 2587.5 479L2298.5 479C2286.07 479 2276 468.926 2276 456.499Z" stroke="#4472C4" stroke-width="2.29167" stroke-miterlimit="8" fill="url(#fill3)" fill-rule="evenodd"/><text fill="#FFFFFF" font-family="Arial,Arial_MSFontService,sans-serif" font-weight="400" font-size="73" transform="matrix(1 0 0 1 2317.25 438)">decimal</text><path d="M2656 366.5C2656 354.074 2666.07 344 2678.5 344L2975.5 344C2987.93 344 2998 354.074 2998 366.5L2998 456.499C2998 468.926 2987.93 479 2975.5 479L2678.5 479C2666.07 479 2656 468.926 2656 456.499Z" stroke="#4472C4" stroke-width="2.29167" stroke-miterlimit="8" fill="url(#fill4)" fill-rule="evenodd"/><text fill="#FFFFFF" font-family="Arial,Arial_MSFontService,sans-serif" font-weight="400" font-size="73" transform="matrix(1 0 0 1 2697.36 438)">boolean</text><path d="M3040 366.5C3040 354.074 3050.07 344 3062.5 344L3424.5 344C3436.93 344 3447 354.074 3447 366.5L3447 456.5C3447 468.926 3436.93 479 3424.5 479L3062.5 479C3050.07 479 3040 468.926 3040 456.5Z" stroke="#4472C4" stroke-width="2.29167" stroke-miterlimit="8" fill="url(#fill5)" fill-rule="evenodd"/><text fill="#FFFFFF" font-family="Arial,Arial_MSFontService,sans-serif" font-weight="400" font-size="73" transform="matrix(1 0 0 1 3080.49 438)">hexBinary</text><path d="M290 2324.67C290 2312.15 300.148 2302 312.667 2302L490.333 2302C502.852 2302 513 2312.15 513 2324.67L513 2415.33C513 2427.85 502.852 2438 490.333 2438L312.667 2438C300.148 2438 290 2427.85 290 2415.33Z" stroke="#4472C4" stroke-width="2.29167" stroke-miterlimit="8" fill="url(#fill6)" fill-rule="evenodd"/><text fill="#FFFFFF" font-family="Arial,Arial_MSFontService,sans-serif" font-weight="400" font-size="73" transform="matrix(1 0 0 1 330.112 2397)">date</text><path d="M562 2324.67C562 2312.15 572.148 2302 584.667 2302L757.333 2302C769.852 2302 780 2312.15 780 2324.67L780 2415.33C780 2427.85 769.852 2438 757.333 2438L584.667 2438C572.148 2438 562 2427.85 562 2415.33Z" stroke="#4472C4" stroke-width="2.29167" stroke-miterlimit="8" fill="url(#fill7)" fill-rule="evenodd"/><text fill="#FFFFFF" font-family="Arial,Arial_MSFontService,sans-serif" font-weight="400" font-size="73" transform="matrix(1 0 0 1 601.668 2397)">time</text><path d="M821 2324.67C821 2312.15 831.148 2302 843.667 2302L1181.33 2302C1193.85 2302 1204 2312.15 1204 2324.67L1204 2415.33C1204 2427.85 1193.85 2438 1181.33 2438L843.667 2438C831.148 2438 821 2427.85 821 2415.33Z" stroke="#4472C4" stroke-width="2.29167" stroke-miterlimit="8" fill="url(#fill8)" fill-rule="evenodd"/><text fill="#FFFFFF" font-family="Arial,Arial_MSFontService,sans-serif" font-weight="400" font-size="73" transform="matrix(1 0 0 1 859.5 2397)">dateTime</text><path d="M772.5 367C772.5 354.574 782.574 344.5 795 344.5L1084 344.5C1096.43 344.5 1106.5 354.574 1106.5 367L1106.5 456.999C1106.5 469.426 1096.43 479.5 1084 479.5L795 479.5C782.574 479.5 772.5 469.426 772.5 456.999Z" stroke="#000000" stroke-width="4.58333" stroke-miterlimit="8" fill="#FFFFFF" fill-rule="evenodd"/><text font-family="Arial,Arial_MSFontService,sans-serif" font-weight="400" font-size="73" transform="matrix(1 0 0 1 812.733 438)">QName</text><path d="M1151.5 367C1151.5 354.574 1161.57 344.5 1174 344.5L1580 344.5C1592.43 344.5 1602.5 354.574 1602.5 367L1602.5 457C1602.5 469.426 1592.43 479.5 1580 479.5L1174 479.5C1161.57 479.5 1151.5 469.426 1151.5 457Z" stroke="#000000" stroke-width="4.58333" stroke-miterlimit="8" fill="#FFFFFF" fill-rule="evenodd"/><text font-family="Arial,Arial_MSFontService,sans-serif" font-weight="400" font-size="73" transform="matrix(1 0 0 1 1187.33 438)">NOTATION</text><path d="M3477.5 367.001C3477.5 354.574 3487.57 344.5 3500 344.5L3983 344.5C3995.43 344.5 4005.5 354.574 4005.5 367.001L4005.5 456.999C4005.5 469.426 3995.43 479.5 3983 479.5L3500 479.5C3487.57 479.5 3477.5 469.426 3477.5 456.999Z" stroke="#000000" stroke-width="4.58333" stroke-miterlimit="8" fill="#FFFFFF" fill-rule="evenodd"/><text font-family="Arial,Arial_MSFontService,sans-serif" font-weight="400" font-size="73" transform="matrix(1 0 0 1 3517.07 438)">base64Binary</text><path d="M4040.5 367.001C4040.5 354.574 4050.57 344.5 4063 344.5L4344 344.5C4356.43 344.5 4366.5 354.574 4366.5 367.001L4366.5 456.999C4366.5 469.426 4356.43 479.5 4344 479.5L4063 479.5C4050.57 479.5 4040.5 469.426 4040.5 456.999Z" stroke="#000000" stroke-width="4.58333" stroke-miterlimit="8" fill="#FFFFFF" fill-rule="evenodd"/><text font-family="Arial,Arial_MSFontService,sans-serif" font-weight="400" font-size="73" transform="matrix(1 0 0 1 4080.87 438)">anyURI</text><path d="M1244.5 2325.17C1244.5 2312.65 1254.65 2302.5 1267.17 2302.5L1490.83 2302.5C1503.35 2302.5 1513.5 2312.65 1513.5 2325.17L1513.5 2415.83C1513.5 2428.35 1503.35 2438.5 1490.83 2438.5L1267.17 2438.5C1254.65 2438.5 1244.5 2428.35 1244.5 2415.83Z" stroke="#000000" stroke-width="4.58333" stroke-miterlimit="8" fill="#FFFFFF" fill-rule="evenodd"/><text font-family="Arial,Arial_MSFontService,sans-serif" font-weight="400" font-size="73" transform="matrix(1 0 0 1 1280.76 2397)">gYear</text><path d="M278.5 675.001C278.5 662.574 288.574 652.5 301.001 652.5L890 652.5C902.426 652.5 912.5 662.574 912.5 675.001L912.5 764.999C912.5 777.426 902.426 787.5 890 787.5L301.001 787.5C288.574 787.5 278.5 777.426 278.5 764.999Z" stroke="#000000" stroke-width="4.58333" stroke-miterlimit="8" fill="#FFFFFF" fill-rule="evenodd"/><text font-family="Arial,Arial_MSFontService,sans-serif" font-weight="400" font-size="73" transform="matrix(1 0 0 1 320.202 746)">normalizedString</text><path d="M465.5 929C465.5 916.574 475.574 906.5 488 906.5L703 906.5C715.426 906.5 725.5 916.574 725.5 929L725.5 1019C725.5 1031.43 715.426 1041.5 703 1041.5L488 1041.5C475.574 1041.5 465.5 1031.43 465.5 1019Z" stroke="#000000" stroke-width="4.58333" stroke-miterlimit="8" fill="#FFFFFF" fill-rule="evenodd"/><text font-family="Arial,Arial_MSFontService,sans-serif" font-weight="400" font-size="73" transform="matrix(1 0 0 1 505.254 1001)">token</text><path d="M34.4999 1219C34.4999 1206.57 44.5737 1196.5 57.0005 1196.5L394 1196.5C406.426 1196.5 416.5 1206.57 416.5 1219L416.5 1309C416.5 1321.43 406.426 1331.5 394 1331.5L57.0005 1331.5C44.5737 1331.5 34.4999 1321.43 34.4999 1309Z" stroke="#000000" stroke-width="4.58333" stroke-miterlimit="8" fill="#FFFFFF" fill-rule="evenodd"/><text font-family="Arial,Arial_MSFontService,sans-serif" font-weight="400" font-size="73" transform="matrix(1 0 0 1 74.6583 1290)">language</text><path d="M457.5 1219C457.5 1206.57 467.574 1196.5 480 1196.5L711 1196.5C723.426 1196.5 733.5 1206.57 733.5 1219L733.5 1309C733.5 1321.43 723.426 1331.5 711 1331.5L480 1331.5C467.574 1331.5 457.5 1321.43 457.5 1309Z" stroke="#000000" stroke-width="4.58333" stroke-miterlimit="8" fill="#FFFFFF" fill-rule="evenodd"/><text font-family="Arial,Arial_MSFontService,sans-serif" font-weight="400" font-size="73" transform="matrix(1 0 0 1 497.232 1290)">Name</text><path d="M844.5 1219C844.5 1206.57 854.574 1196.5 867.001 1196.5L1269 1196.5C1281.43 1196.5 1291.5 1206.57 1291.5 1219L1291.5 1309C1291.5 1321.43 1281.43 1331.5 1269 1331.5L867.001 1331.5C854.574 1331.5 844.5 1321.43 844.5 1309Z" stroke="#000000" stroke-width="4.58333" stroke-miterlimit="8" fill="#FFFFFF" fill-rule="evenodd"/><text font-family="Arial,Arial_MSFontService,sans-serif" font-weight="400" font-size="73" transform="matrix(1 0 0 1 884.583 1290)">NMTOKEN</text><path d="M404.5 1447C404.5 1434.57 414.574 1424.5 427 1424.5L763 1424.5C775.426 1424.5 785.5 1434.57 785.5 1447L785.5 1537C785.5 1549.43 775.426 1559.5 763 1559.5L427 1559.5C414.574 1559.5 404.5 1549.43 404.5 1537Z" stroke="#000000" stroke-width="4.58333" stroke-miterlimit="8" fill="#FFFFFF" fill-rule="evenodd"/><text font-family="Arial,Arial_MSFontService,sans-serif" font-weight="400" font-size="73" transform="matrix(1 0 0 1 444.524 1518)">NCName</text><path d="M821.5 1447C821.5 1434.57 831.574 1424.5 844 1424.5L1292 1424.5C1304.43 1424.5 1314.5 1434.57 1314.5 1447L1314.5 1537C1314.5 1549.43 1304.43 1559.5 1292 1559.5L844 1559.5C831.574 1559.5 821.5 1549.43 821.5 1537Z" stroke="#000000" stroke-width="4.58333" stroke-miterlimit="8" fill="#FFFFFF" fill-rule="evenodd"/><text font-family="Arial,Arial_MSFontService,sans-serif" font-weight="400" font-size="73" transform="matrix(1 0 0 1 860.234 1518)">NMTOKENS</text><path d="M1633.95 183 1633.95 264.391 591 264.391 592.146 263.245 592.146 320.572 589.854 320.572 589.854 262.099 1632.81 262.099 1631.66 263.245 1631.66 183ZM604.75 315.989 591 343.489 577.25 315.989Z" fill="#4472C4"/><path d="M1633.53 183 1633.53 264.39 939 264.39 940.146 263.244 940.146 320.572 937.854 320.572 937.854 262.099 1632.38 262.099 1631.23 263.244 1631.23 183ZM952.75 315.988 939 343.488 925.25 315.988Z" fill="#4472C4"/><path d="M1633.91 183 1633.91 264.39 1377 264.39 1378.15 263.244 1378.15 320.572 1375.85 320.572 1375.85 262.099 1632.77 262.099 1631.62 263.244 1631.62 183ZM1390.75 315.989 1377 343.489 1363.25 315.989Z" fill="#4472C4"/><path d="M0-1.14583 81.3901-1.14583 81.3901 130.905 80.2442 129.76 137.572 129.76 137.572 132.051 79.0984 132.051 79.0984 0 80.2442 1.14583 0 1.14583ZM132.988 117.155 160.488 130.905 132.988 144.655Z" fill="#4472C4" transform="matrix(1.83697e-16 1 1 -1.83697e-16 1632 183)"/><path d="M0-1.14583 81.3903-1.14583 81.3903 445.408 80.2445 444.262 137.572 444.262 137.572 446.553 79.0986 446.553 79.0986 0 80.2445 1.14583 0 1.14583ZM132.988 431.658 160.488 445.408 132.988 459.158Z" fill="#4472C4" transform="matrix(1.83697e-16 1 1 -1.83697e-16 1632 183)"/><path d="M0-1.14583 81.3901-1.14583 81.3901 810.856 80.2442 809.71 137.572 809.71 137.572 812.002 79.0984 812.002 79.0984 0 80.2442 1.14583 0 1.14583ZM132.988 797.106 160.488 810.856 132.988 824.606Z" fill="#4472C4" transform="matrix(1.83697e-16 1 1 -1.83697e-16 1632 183)"/><path d="M0-1.14583 81.3901-1.14583 81.3901 1194.97 80.2442 1193.83 137.572 1193.83 137.572 1196.12 79.0984 1196.12 79.0984 0 80.2442 1.14583 0 1.14583ZM132.988 1181.22 160.488 1194.97 132.988 1208.72Z" fill="#4472C4" transform="matrix(1.83697e-16 1 1 -1.83697e-16 1632 183)"/><path d="M0-1.14583 81.3901-1.14583 81.3901 2108.35 80.2442 2107.21 137.572 2107.21 137.572 2109.5 79.0984 2109.5 79.0984 0 80.2442 1.14583 0 1.14583ZM132.988 2094.6 160.488 2108.35 132.988 2122.1Z" fill="#4472C4" transform="matrix(1.83697e-16 1 1 -1.83697e-16 1632 183)"/><path d="M0-1.14583 81.3901-1.14583 81.3901 1610.76 80.2442 1609.61 137.572 1609.61 137.572 1611.9 79.0984 1611.9 79.0984 0 80.2442 1.14583 0 1.14583ZM132.988 1597.01 160.488 1610.76 132.988 1624.51Z" fill="#4472C4" transform="matrix(1.83697e-16 1 1 -1.83697e-16 1632 183)"/><path d="M0-1.14583 81.3915-1.14583 81.3915 2570.46 80.2456 2569.32 137.572 2569.32 137.572 2571.61 79.0998 2571.61 79.0998 0 80.2456 1.14583 0 1.14583ZM132.988 2556.71 160.488 2570.46 132.988 2584.21Z" fill="#4472C4" transform="matrix(1.83697e-16 1 1 -1.83697e-16 1632 183)"/><path d="M1551.5 2325.17C1551.5 2312.65 1561.65 2302.5 1574.17 2302.5L2000.83 2302.5C2013.35 2302.5 2023.5 2312.65 2023.5 2325.17L2023.5 2415.83C2023.5 2428.35 2013.35 2438.5 2000.83 2438.5L1574.17 2438.5C1561.65 2438.5 1551.5 2428.35 1551.5 2415.83Z" stroke="#000000" stroke-width="4.58333" stroke-miterlimit="8" fill="#FFFFFF" fill-rule="evenodd"/><text font-family="Arial,Arial_MSFontService,sans-serif" font-weight="400" font-size="73" transform="matrix(1 0 0 1 1587.5 2397)">gYearMonth</text><path d="M2054.5 2325.17C2054.5 2312.65 2064.65 2302.5 2077.17 2302.5L2357.83 2302.5C2370.35 2302.5 2380.5 2312.65 2380.5 2325.17L2380.5 2415.83C2380.5 2428.35 2370.35 2438.5 2357.83 2438.5L2077.17 2438.5C2064.65 2438.5 2054.5 2428.35 2054.5 2415.83Z" stroke="#000000" stroke-width="4.58333" stroke-miterlimit="8" fill="#FFFFFF" fill-rule="evenodd"/><text font-family="Arial,Arial_MSFontService,sans-serif" font-weight="400" font-size="73" transform="matrix(1 0 0 1 2094.76 2397)">gMonth</text><path d="M2407.5 2325.17C2407.5 2312.65 2417.65 2302.5 2430.17 2302.5L2842.83 2302.5C2855.35 2302.5 2865.5 2312.65 2865.5 2325.17L2865.5 2415.83C2865.5 2428.35 2855.35 2438.5 2842.83 2438.5L2430.17 2438.5C2417.65 2438.5 2407.5 2428.35 2407.5 2415.83Z" stroke="#000000" stroke-width="4.58333" stroke-miterlimit="8" fill="#FFFFFF" fill-rule="evenodd"/><text font-family="Arial,Arial_MSFontService,sans-serif" font-weight="400" font-size="73" transform="matrix(1 0 0 1 2448.72 2397)">gMonthDay</text><path d="M2897.5 2325.17C2897.5 2312.65 2907.65 2302.5 2920.17 2302.5L3125.83 2302.5C3138.35 2302.5 3148.5 2312.65 3148.5 2325.17L3148.5 2415.83C3148.5 2428.35 3138.35 2438.5 3125.83 2438.5L2920.17 2438.5C2907.65 2438.5 2897.5 2428.35 2897.5 2415.83Z" stroke="#000000" stroke-width="4.58333" stroke-miterlimit="8" fill="#FFFFFF" fill-rule="evenodd"/><text font-family="Arial,Arial_MSFontService,sans-serif" font-weight="400" font-size="73" transform="matrix(1 0 0 1 2937.36 2397)">gDay</text><path d="M3187.5 2325.17C3187.5 2312.65 3197.65 2302.5 3210.17 2302.5L3511.83 2302.5C3524.35 2302.5 3534.5 2312.65 3534.5 2325.17L3534.5 2415.83C3534.5 2428.35 3524.35 2438.5 3511.83 2438.5L3210.17 2438.5C3197.65 2438.5 3187.5 2428.35 3187.5 2415.83Z" stroke="#000000" stroke-width="4.58333" stroke-miterlimit="8" fill="#FFFFFF" fill-rule="evenodd"/><text font-family="Arial,Arial_MSFontService,sans-serif" font-weight="400" font-size="73" transform="matrix(1 0 0 1 3228.18 2397)">duration</text><path d="M0 0 0.000360892 1978.84" stroke="#4472C4" stroke-width="2.29167" stroke-miterlimit="8" fill="none" fill-rule="evenodd" transform="matrix(-1 0 0 1 1632 183)"/><path d="M2287 646.667C2287 634.148 2297.15 624 2309.67 624L2569.33 624C2581.85 624 2592 634.148 2592 646.667L2592 737.333C2592 749.852 2581.85 760 2569.33 760L2309.67 760C2297.15 760 2287 749.852 2287 737.333Z" stroke="#4472C4" stroke-width="2.29167" stroke-miterlimit="8" fill="url(#fill9)" fill-rule="evenodd"/><text fill="#FFFFFF" font-family="Arial,Arial_MSFontService,sans-serif" font-weight="400" font-size="73" transform="matrix(1 0 0 1 2327.47 719)">integer</text><path d="M2940 928.5C2940 916.074 2950.07 906 2962.5 906L3636.5 906C3648.93 906 3659 916.074 3659 928.5L3659 1018.5C3659 1030.93 3648.93 1041 3636.5 1041L2962.5 1041C2950.07 1041 2940 1030.93 2940 1018.5Z" stroke="#4472C4" stroke-width="2.29167" stroke-miterlimit="8" fill="url(#fill10)" fill-rule="evenodd"/><text fill="#FFFFFF" font-family="Arial,Arial_MSFontService,sans-serif" font-weight="400" font-size="73" transform="matrix(1 0 0 1 2979.45 1001)">nonNegativeInteger</text><path d="M3354 1218.5C3354 1206.07 3364.07 1196 3376.5 1196L3872.5 1196C3884.93 1196 3895 1206.07 3895 1218.5L3895 1308.5C3895 1320.93 3884.93 1331 3872.5 1331L3376.5 1331C3364.07 1331 3354 1320.93 3354 1308.5Z" stroke="#4472C4" stroke-width="2.29167" stroke-miterlimit="8" fill="url(#fill11)" fill-rule="evenodd"/><text fill="#FFFFFF" font-family="Arial,Arial_MSFontService,sans-serif" font-weight="400" font-size="73" transform="matrix(1 0 0 1 3394.94 1290)">unsignedLong</text><path d="M3394 1446.5C3394 1434.07 3404.07 1424 3416.5 1424L3833.5 1424C3845.93 1424 3856 1434.07 3856 1446.5L3856 1536.5C3856 1548.93 3845.93 1559 3833.5 1559L3416.5 1559C3404.07 1559 3394 1548.93 3394 1536.5Z" stroke="#4472C4" stroke-width="2.29167" stroke-miterlimit="8" fill="url(#fill12)" fill-rule="evenodd"/><text fill="#FFFFFF" font-family="Arial,Arial_MSFontService,sans-serif" font-weight="400" font-size="73" transform="matrix(1 0 0 1 3435.33 1518)">unsignedInt</text><path d="M3348 1718.5C3348 1706.07 3358.07 1696 3370.5 1696L3879.5 1696C3891.93 1696 3902 1706.07 3902 1718.5L3902 1808.5C3902 1820.93 3891.93 1831 3879.5 1831L3370.5 1831C3358.07 1831 3348 1820.93 3348 1808.5Z" stroke="#4472C4" stroke-width="2.29167" stroke-miterlimit="8" fill="url(#fill13)" fill-rule="evenodd"/><text fill="#FFFFFF" font-family="Arial,Arial_MSFontService,sans-serif" font-weight="400" font-size="73" transform="matrix(1 0 0 1 3388.64 1791)">unsignedShort</text><path d="M3363 1963.5C3363 1951.07 3373.07 1941 3385.5 1941L3864.5 1941C3876.93 1941 3887 1951.07 3887 1963.5L3887 2053.5C3887 2065.93 3876.93 2076 3864.5 2076L3385.5 2076C3373.07 2076 3363 2065.93 3363 2053.5Z" stroke="#4472C4" stroke-width="2.29167" stroke-miterlimit="8" fill="url(#fill14)" fill-rule="evenodd"/><text fill="#FFFFFF" font-family="Arial,Arial_MSFontService,sans-serif" font-weight="400" font-size="73" transform="matrix(1 0 0 1 3402.96 2035)">unsignedByte</text><path d="M2764.5 1219C2764.5 1206.57 2774.57 1196.5 2787 1196.5L3300 1196.5C3312.43 1196.5 3322.5 1206.57 3322.5 1219L3322.5 1309C3322.5 1321.43 3312.43 1331.5 3300 1331.5L2787 1331.5C2774.57 1331.5 2764.5 1321.43 2764.5 1309Z" stroke="#000000" stroke-width="4.58333" stroke-miterlimit="8" fill="#FFFFFF" fill-rule="evenodd"/><text font-family="Arial,Arial_MSFontService,sans-serif" font-weight="400" font-size="73" transform="matrix(1 0 0 1 2804.76 1290)">positiveInteger</text><path d="M2097.5 929.001C2097.5 916.574 2107.57 906.5 2120 906.5L2760 906.5C2772.43 906.5 2782.5 916.574 2782.5 929.001L2782.5 1019C2782.5 1031.43 2772.43 1041.5 2760 1041.5L2120 1041.5C2107.57 1041.5 2097.5 1031.43 2097.5 1019Z" stroke="#000000" stroke-width="4.58333" stroke-miterlimit="8" fill="#FFFFFF" fill-rule="evenodd"/><text font-family="Arial,Arial_MSFontService,sans-serif" font-weight="400" font-size="73" transform="matrix(1 0 0 1 2136.12 1001)">nonPositiveInteger</text><path d="M2145.5 1219C2145.5 1206.57 2155.57 1196.5 2168 1196.5L2712 1196.5C2724.43 1196.5 2734.5 1206.57 2734.5 1219L2734.5 1309C2734.5 1321.43 2724.43 1331.5 2712 1331.5L2168 1331.5C2155.57 1331.5 2145.5 1321.43 2145.5 1309Z" stroke="#000000" stroke-width="4.58333" stroke-miterlimit="8" fill="#FFFFFF" fill-rule="evenodd"/><text font-family="Arial,Arial_MSFontService,sans-serif" font-weight="400" font-size="73" transform="matrix(1 0 0 1 2186.82 1290)">negativeInteger</text><path d="M1786 928.501C1786 916.074 1796.07 906 1808.5 906L1981.5 906C1993.93 906 2004 916.074 2004 928.501L2004 1018.5C2004 1030.93 1993.93 1041 1981.5 1041L1808.5 1041C1796.07 1041 1786 1030.93 1786 1018.5Z" stroke="#4472C4" stroke-width="2.29167" stroke-miterlimit="8" fill="url(#fill15)" fill-rule="evenodd"/><text fill="#FFFFFF" font-family="Arial,Arial_MSFontService,sans-serif" font-weight="400" font-size="73" transform="matrix(1 0 0 1 1826.16 1001)">long</text><path d="M1817 1218.5C1817 1206.07 1827.07 1196 1839.5 1196L1951.5 1196C1963.93 1196 1974 1206.07 1974 1218.5L1974 1308.5C1974 1320.93 1963.93 1331 1951.5 1331L1839.5 1331C1827.07 1331 1817 1320.93 1817 1308.5Z" stroke="#4472C4" stroke-width="2.29167" stroke-miterlimit="8" fill="url(#fill16)" fill-rule="evenodd"/><text fill="#FFFFFF" font-family="Arial,Arial_MSFontService,sans-serif" font-weight="400" font-size="73" transform="matrix(1 0 0 1 1856.53 1290)">int</text><path d="M1774 1446.5C1774 1434.07 1784.07 1424 1796.5 1424L1994.5 1424C2006.93 1424 2017 1434.07 2017 1446.5L2017 1536.5C2017 1548.93 2006.93 1559 1994.5 1559L1796.5 1559C1784.07 1559 1774 1548.93 1774 1536.5Z" stroke="#4472C4" stroke-width="2.29167" stroke-miterlimit="8" fill="url(#fill17)" fill-rule="evenodd"/><text fill="#FFFFFF" font-family="Arial,Arial_MSFontService,sans-serif" font-weight="400" font-size="73" transform="matrix(1 0 0 1 1813.56 1518)">short</text><path d="M1786 1718.5C1786 1706.07 1796.07 1696 1808.5 1696L1982.5 1696C1994.93 1696 2005 1706.07 2005 1718.5L2005 1808.5C2005 1820.93 1994.93 1831 1982.5 1831L1808.5 1831C1796.07 1831 1786 1820.93 1786 1808.5Z" stroke="#4472C4" stroke-width="2.29167" stroke-miterlimit="8" fill="url(#fill18)" fill-rule="evenodd"/><text fill="#FFFFFF" font-family="Arial,Arial_MSFontService,sans-serif" font-weight="400" font-size="73" transform="matrix(1 0 0 1 1825.88 1791)">byte</text><path d="M2440.15 760 2440.15 834.493 2439 834.493 2440.15 833.347 2440.15 883.778 2437.85 883.778 2437.85 832.201 2439 832.201 2437.86 833.347 2437.86 760ZM2452.75 879.194 2439 906.694 2425.25 879.194Z" fill="#4472C4"/><path d="M0-1.14583 74.4935-1.14583 74.4935 859.658 73.3477 858.512 123.778 858.512 123.778 860.804 72.2019 860.804 72.2019 0 73.3477 1.14583 0 1.14583ZM119.194 845.908 146.694 859.658 119.194 873.408Z" fill="#4472C4" transform="matrix(1.83697e-16 1 1 -1.83697e-16 2439 760)"/><path d="M1.14544-0.0300389 4.3611 122.589 2.07022 122.649-1.14544 0.0300389ZM16.8408 117.677 3.81644 145.528-10.6498 118.398Z" fill="#4472C4" transform="matrix(-1 0 0 1 2442.82 479)"/><path d="M2440.43 760 2440.43 834.493 1895 834.493 1896.15 833.347 1896.15 883.778 1893.85 883.778 1893.85 832.202 2439.28 832.202 2438.14 833.347 2438.14 760ZM1908.75 879.195 1895 906.695 1881.25 879.195Z" fill="#4472C4"/><path d="M0-1.14583 78.2931-1.14583 78.2931 0.00252625 77.1472-1.14331 131.378-1.14331 131.378 1.14836 76.0014 1.14836 76.0014 0 77.1472 1.14583 0 1.14583ZM126.794-13.7475 154.294 0.00252625 126.794 13.7525Z" fill="#4472C4" transform="matrix(1.83697e-16 1 1 -1.83697e-16 2439 1041)"/><path d="M0-1.14583 78.2933-1.14583 78.2933 325.545 77.1474 324.399 131.378 324.399 131.378 326.691 76.0016 326.691 76.0016 0 77.1474 1.14583 0 1.14583ZM126.794 311.795 154.294 325.545 126.794 339.295Z" fill="#4472C4" transform="matrix(1.83697e-16 1 1 -1.83697e-16 3299 1041)"/><path d="M3300.19 1041 3300.19 1119.29 3043 1119.29 3044.15 1118.15 3044.15 1172.38 3041.85 1172.38 3041.85 1117 3299.04 1117 3297.9 1118.15 3297.9 1041ZM3056.75 1167.79 3043 1195.29 3029.25 1167.79Z" fill="#4472C4"/><path d="M3626.15 1331 3626.15 1400.83 3623.85 1400.83 3623.85 1331ZM3638.75 1396.25 3625 1423.75 3611.25 1396.25Z" fill="#4472C4"/><path d="M1.14583-9.03241e-06 1.14674 114.43-1.14493 114.43-1.14583 9.03241e-06ZM13.7509 109.846 0.00108268 137.346-13.7491 109.846Z" fill="#4472C4" transform="matrix(-1 0 0 1 3625 1559)"/><path d="M3626.15 1831 3626.15 1917.66 3623.85 1917.66 3623.85 1831ZM3638.75 1913.08 3625 1940.58 3611.25 1913.08Z" fill="#4472C4"/><path d="M1896.15 1041 1896.15 1172.38 1893.86 1172.38 1893.85 1041ZM1908.75 1167.79 1895 1195.29 1881.25 1167.79Z" fill="#4472C4"/><path d="M1.14583-4.45858e-06 1.14611 69.8309-1.14556 69.8309-1.14583 4.45858e-06ZM13.7503 65.2475 0.000360892 92.7475-13.7497 65.2476Z" fill="#4472C4" transform="matrix(-1 0 0 1 1895 1331)"/><path d="M1.14583-3.0108e-06 1.14613 114.43-1.14553 114.43-1.14583 3.0108e-06ZM13.7503 109.846 0.000360892 137.346-13.7497 109.846Z" fill="#4472C4" transform="matrix(-1 0 0 1 1895 1559)"/><path d="M1633.14 2162 1633.14 2233.32 1378 2233.32 1379.15 2232.18 1379.15 2279.44 1376.85 2279.44 1376.85 2231.03 1632 2231.03 1630.85 2232.18 1630.85 2162ZM1391.75 2274.85 1378 2302.35 1364.25 2274.85Z" fill="#4472C4"/><path d="M1633.15 2162 1633.15 2233.32 401 2233.32 402.146 2232.18 402.146 2279.44 399.854 2279.44 399.854 2231.03 1632 2231.03 1630.85 2232.18 1630.85 2162ZM414.75 2274.86 401 2302.36 387.25 2274.86Z" fill="#4472C4"/><path d="M1633.59 2162 1633.59 2233.32 671 2233.32 672.146 2232.18 672.146 2279.44 669.854 2279.44 669.854 2231.03 1632.45 2231.03 1631.3 2232.18 1631.3 2162ZM684.75 2274.85 671 2302.35 657.25 2274.85Z" fill="#4472C4"/><path d="M1633.4 2162 1633.4 2233.32 1012 2233.32 1013.15 2232.18 1013.15 2279.44 1010.85 2279.44 1010.85 2231.03 1632.26 2231.03 1631.11 2232.18 1631.11 2162ZM1025.75 2274.85 1012 2302.35 998.25 2274.85Z" fill="#4472C4"/><path d="M0-1.14583 71.3232-1.14583 71.3232 154.725 70.1774 153.579 117.438 153.579 117.438 155.871 69.0316 155.871 69.0316 0 70.1774 1.14583 0 1.14583ZM112.855 140.975 140.355 154.725 112.855 168.475Z" fill="#4472C4" transform="matrix(1.83697e-16 1 1 -1.83697e-16 1632 2162)"/><path d="M0-1.14583 71.3235-1.14583 71.3235 584.641 70.1777 583.495 117.438 583.495 117.438 585.787 69.0318 585.787 69.0318 0 70.1777 1.14583 0 1.14583ZM112.855 570.891 140.355 584.641 112.855 598.391Z" fill="#4472C4" transform="matrix(1.83697e-16 1 1 -1.83697e-16 1632 2162)"/><path d="M0-1.14583 71.3232-1.14583 71.3232 1003.63 70.1773 1002.48 117.438 1002.48 117.438 1004.77 69.0315 1004.77 69.0315 0 70.1773 1.14583 0 1.14583ZM112.855 989.877 140.355 1003.63 112.855 1017.38Z" fill="#4472C4" transform="matrix(1.83697e-16 1 1 -1.83697e-16 1632 2162)"/><path d="M0-1.14583 71.3232-1.14583 71.3232 1390.28 70.1773 1389.14 117.438 1389.14 117.438 1391.43 69.0315 1391.43 69.0315 0 70.1773 1.14583 0 1.14583ZM112.855 1376.53 140.355 1390.28 112.855 1404.03Z" fill="#4472C4" transform="matrix(1.83697e-16 1 1 -1.83697e-16 1632 2162)"/><path d="M0-1.14583 71.3241-1.14583 71.3241 1728.08 70.1783 1726.93 117.438 1726.93 117.438 1729.23 69.0324 1729.23 69.0324 0 70.1783 1.14583 0 1.14583ZM112.855 1714.33 140.355 1728.08 112.855 1741.83Z" fill="#4472C4" transform="matrix(1.83697e-16 1 1 -1.83697e-16 1632 2162)"/><path d="M137.5 1719C137.5 1706.57 147.574 1696.5 160 1696.5L268 1696.5C280.426 1696.5 290.5 1706.57 290.5 1719L290.5 1809C290.5 1821.43 280.426 1831.5 268 1831.5L160 1831.5C147.574 1831.5 137.5 1821.43 137.5 1809Z" stroke="#000000" stroke-width="4.58333" stroke-miterlimit="8" fill="#FFFFFF" fill-rule="evenodd"/><text font-family="Arial,Arial_MSFontService,sans-serif" font-weight="400" font-size="73" transform="matrix(1 0 0 1 176.603 1791)">ID</text><path d="M445.5 1719C445.5 1706.57 455.574 1696.5 468 1696.5L723 1696.5C735.426 1696.5 745.5 1706.57 745.5 1719L745.5 1809C745.5 1821.43 735.426 1831.5 723 1831.5L468 1831.5C455.574 1831.5 445.5 1821.43 445.5 1809Z" stroke="#000000" stroke-width="4.58333" stroke-miterlimit="8" fill="#FFFFFF" fill-rule="evenodd"/><text font-family="Arial,Arial_MSFontService,sans-serif" font-weight="400" font-size="73" transform="matrix(1 0 0 1 485.201 1791)">IDREF</text><path d="M892.5 1719C892.5 1706.57 902.574 1696.5 915 1696.5L1212 1696.5C1224.43 1696.5 1234.5 1706.57 1234.5 1719L1234.5 1809C1234.5 1821.43 1224.43 1831.5 1212 1831.5L915 1831.5C902.574 1831.5 892.5 1821.43 892.5 1809Z" stroke="#000000" stroke-width="4.58333" stroke-miterlimit="8" fill="#FFFFFF" fill-rule="evenodd"/><text font-family="Arial,Arial_MSFontService,sans-serif" font-weight="400" font-size="73" transform="matrix(1 0 0 1 932.529 1791)">ENTITY</text><path d="M420.5 1964C420.5 1951.57 430.574 1941.5 443 1941.5L747.999 1941.5C760.426 1941.5 770.5 1951.57 770.5 1964L770.5 2054C770.5 2066.43 760.426 2076.5 747.999 2076.5L443 2076.5C430.574 2076.5 420.5 2066.43 420.5 2054Z" stroke="#000000" stroke-width="4.58333" stroke-miterlimit="8" fill="#FFFFFF" fill-rule="evenodd"/><text font-family="Arial,Arial_MSFontService,sans-serif" font-weight="400" font-size="73" transform="matrix(1 0 0 1 460.853 2035)">IDREFS</text><path d="M857.5 1964C857.5 1951.57 867.574 1941.5 880 1941.5L1246 1941.5C1258.43 1941.5 1268.5 1951.57 1268.5 1964L1268.5 2054C1268.5 2066.43 1258.43 2076.5 1246 2076.5L880 2076.5C867.574 2076.5 857.5 2066.43 857.5 2054Z" stroke="#000000" stroke-width="4.58333" stroke-miterlimit="8" fill="#FFFFFF" fill-rule="evenodd"/><text font-family="Arial,Arial_MSFontService,sans-serif" font-weight="400" font-size="73" transform="matrix(1 0 0 1 897.866 2035)">ENTITIES</text><path d="M592.145 478.971 595.86 628.996 593.569 629.053 589.854 479.028ZM608.347 624.102 595.282 651.934 580.856 624.783Z" fill="#4472C4"/><path d="M1.14583-1.03998e-05 1.14671 96.3709-1.14496 96.3709-1.14583 1.03998e-05ZM13.7508 91.7874 0.00108268 119.288-13.7492 91.7877Z" fill="#4472C4" transform="matrix(-1 0 0 1 595.001 787)"/><path d="M1.14583-8.04024e-06 1.14676 131.378-1.14491 131.378-1.14583 8.04024e-06ZM13.7509 126.795 0.00108268 154.295-13.7491 126.795Z" fill="#4472C4" transform="matrix(-1 0 0 1 595.001 1041)"/><path d="M596.146 1331 596.147 1400.83 593.855 1400.83 593.854 1331ZM608.751 1396.25 595.001 1423.75 581.251 1396.25Z" fill="#4472C4"/><path d="M1.14583-3.01077e-06 1.14613 114.431-1.14553 114.431-1.14583 3.01077e-06ZM13.7503 109.848 0.000360892 137.348-13.7497 109.848Z" fill="#4472C4" transform="matrix(-1 0 0 1 595 1559)"/><path d="M596.146 1831 596.147 1917.66 593.855 1917.66 593.854 1831ZM608.751 1913.08 595.002 1940.58 581.251 1913.08Z" fill="#4472C4"/><path d="M1069.15 1331 1069.15 1400.83 1066.85 1400.83 1066.85 1331ZM1081.75 1396.25 1068 1423.75 1054.25 1396.25Z" fill="#4472C4"/><path d="M1.14583-1.50951e-05 1.14698 86.6611-1.14469 86.6611-1.14583 1.50951e-05ZM13.7511 82.0776 0.00144357 109.578-13.7489 82.0779Z" fill="#4472C4" transform="matrix(-1 0 0 1 1063 1831)"/><path d="M0-1.14583 78.2935-1.14583 78.2935 472.715 77.1477 471.569 131.378 471.569 131.378 473.86 76.0019 473.86 76.0019 0 77.1477 1.14583 0 1.14583ZM126.795 458.965 154.295 472.715 126.795 486.465Z" fill="#4472C4" transform="matrix(1.83697e-16 1 1 -1.83697e-16 595 1041)"/><path d="M596.012 1041 596.012 1119.29 225 1119.29 226.146 1118.15 226.146 1172.38 223.854 1172.38 223.854 1117 594.866 1117 593.72 1118.15 593.72 1041ZM238.75 1167.79 225 1195.29 211.25 1167.79Z" fill="#4472C4"/><path d="M595.791 1559 595.791 1628.82 213 1628.82 214.146 1627.67 214.146 1673.43 211.854 1673.43 211.854 1626.53 594.645 1626.53 593.5 1627.67 593.5 1559ZM226.75 1668.85 213 1696.35 199.25 1668.85Z" fill="#4472C4"/><path d="M0-1.14583 69.8197-1.14583 69.8197 467.666 68.6739 466.52 114.431 466.52 114.431 468.811 67.528 468.811 67.528 0 68.6739 1.14583 0 1.14583ZM109.848 453.916 137.348 467.666 109.848 481.416Z" fill="#4472C4" transform="matrix(1.83697e-16 1 1 -1.83697e-16 595 1559)"/><path d="M0 9.99997C-2.16431e-15 4.47714 3.80554 0 8.49992 0 13.1943-2.54626e-15 16.9998 4.47714 16.9998 9.99997 16.9998 15.5228 13.1943 19.9999 8.49992 19.9999 3.80554 19.9999-3.24646e-15 15.5228 0 9.99997Z" stroke="#2F528F" stroke-width="4.58333" stroke-miterlimit="8" fill="#4472C4" fill-rule="evenodd" transform="matrix(1 0 0 -1 1624.5 2162.5)"/></g></svg>